<svg xmlns="http://www.w3.org/2000/svg" width="25" height="25" viewBox="0 0 25 25">
  <g id="Group_89" data-name="Group 89" transform="translate(0.084 0.033)">
    <path id="Path_72" data-name="Path 72" d="M12.5,0A12.5,12.5,0,1,1,0,12.5,12.634,12.634,0,0,1,4.255,3.1,12.258,12.258,0,0,1,12.5,0Z" transform="translate(-0.084 -0.033)" fill="#fff"/>
    <g id="Thumb_up_icon_2" transform="translate(5.832 5.96)">
      <path id="Path_67" data-name="Path 67" d="M8.5,16.49V11.583a.482.482,0,0,1,.145-.347.469.469,0,0,1,.347-.145H11.2a.482.482,0,0,1,.347.145.469.469,0,0,1,.145.347V16.49a.482.482,0,0,1-.145.347.469.469,0,0,1-.347.145H8.992a.482.482,0,0,1-.347-.145A.469.469,0,0,1,8.5,16.49Zm.985-.977a.457.457,0,0,0,.145.347.469.469,0,0,0,.347.145.482.482,0,0,0,.347-.145.469.469,0,0,0,.145-.347.482.482,0,0,0-.145-.347.469.469,0,0,0-.347-.145.457.457,0,0,0-.347.145A.469.469,0,0,0,9.485,15.513Zm2.7.977V11.575a.457.457,0,0,1,.137-.331.473.473,0,0,1,.331-.153c.121-.008.315-.161.581-.452s.525-.6.775-.928a11.306,11.306,0,0,1,.775-.92,1.174,1.174,0,0,0,.234-.371,2.816,2.816,0,0,0,.137-.371c.024-.1.056-.25.1-.46a4.16,4.16,0,0,1,.1-.468,1.95,1.95,0,0,1,.153-.4,1.361,1.361,0,0,1,.258-.379A.469.469,0,0,1,16.11,6.2a2.165,2.165,0,0,1,.629.081,1.748,1.748,0,0,1,.46.2,1.109,1.109,0,0,1,.307.307,2.129,2.129,0,0,1,.186.347,1.459,1.459,0,0,1,.089.379c.024.153.032.266.04.347v.3a2.388,2.388,0,0,1-.073.581,3.15,3.15,0,0,1-.145.46c-.048.113-.121.258-.21.428-.016.032-.04.073-.073.137a1.528,1.528,0,0,0-.081.169,1.607,1.607,0,0,0-.065.186H19.3a1.488,1.488,0,0,1,1.469,1.469,1.69,1.69,0,0,1-.42,1.146,1.973,1.973,0,0,1,.113.581,1.584,1.584,0,0,1-.331,1.049,1.539,1.539,0,0,1,0,.9,1.482,1.482,0,0,1-.412.718,1.827,1.827,0,0,1-.379,1.388,1.906,1.906,0,0,1-1.509.6h-.985a5.634,5.634,0,0,1-1.106-.121,8.742,8.742,0,0,1-.928-.226c-.226-.073-.533-.169-.92-.307a6.021,6.021,0,0,0-1.211-.339.527.527,0,0,1-.347-.153A.4.4,0,0,1,12.18,16.49Z" transform="translate(-8.5 -6.2)" fill="#0cb"/>
    </g>
  </g>
</svg>
