<svg id="phone-call-svgrepo-com_1_" data-name="phone-call-svgrepo-com (1)" xmlns="http://www.w3.org/2000/svg" width="10.461" height="10.438" viewBox="0 0 10.461 10.438">
  <path id="Path_68" data-name="Path 68" d="M6.449,6.893C5.51,7.825,4.424,8.714,4,8.285c-.61-.615-.986-1.15-2.341-.07s-.32,1.808.271,2.4c.682.687,3.238.048,5.771-2.466S10.891,3.089,10.208,2.4c-.591-.6-1.311-1.636-2.4-.289s-.559,1.726.052,2.341C8.285,4.883,7.387,5.962,6.449,6.893ZM5.088,2.45a.6.6,0,0,1,.481.154.55.55,0,0,1,0,.77.612.612,0,0,1-.306.154,2.5,2.5,0,0,0-1.436.736A2.5,2.5,0,0,0,3.089,5.7a.612.612,0,0,1-.154.306.551.551,0,0,1-.77,0,.6.6,0,0,1-.154-.481A3.725,3.725,0,0,1,5.088,2.45Zm-2.655.422A3.843,3.843,0,0,0,1.111,6.008.618.618,0,0,1,.966,6.5a.549.549,0,0,1-.774,0,.685.685,0,0,1-.161-.347A4.9,4.9,0,0,1,1.661,2.1,4.9,4.9,0,0,1,5.717.471a.684.684,0,0,1,.347.161.549.549,0,0,1,0,.774.618.618,0,0,1-.494.146A3.844,3.844,0,0,0,2.433,2.873Z" transform="translate(0 -0.44)" fill="#0cb"/>
</svg>
