<svg xmlns="http://www.w3.org/2000/svg" width="10.46" height="10.438" viewBox="0 0 10.46 10.438">
  <g id="phone-call-svgrepo-com_1_" data-name="phone-call-svgrepo-com (1)" transform="translate(0)">
    <path id="Path_68" data-name="Path 68" d="M4.012,6.893c.938.931,2.024,1.821,2.451,1.391.61-.615.986-1.15,2.341-.07s.32,1.808-.271,2.4c-.682.687-3.238.048-5.771-2.466S-.43,3.089.252,2.4c.591-.6,1.311-1.636,2.4-.289S3.212,3.838,2.6,4.453C2.176,4.883,3.073,5.962,4.012,6.893ZM5.372,2.45a.6.6,0,0,0-.481.154.551.551,0,0,0,0,.77.612.612,0,0,0,.306.154,2.5,2.5,0,0,1,1.436.736A2.5,2.5,0,0,1,7.371,5.7a.612.612,0,0,0,.154.306.551.551,0,0,0,.77,0,.6.6,0,0,0,.154-.481A3.724,3.724,0,0,0,5.372,2.45Zm2.655.422A3.843,3.843,0,0,1,9.349,6.008a.618.618,0,0,0,.146.494.549.549,0,0,0,.774,0,.685.685,0,0,0,.161-.347A4.9,4.9,0,0,0,8.8,2.1,4.9,4.9,0,0,0,4.743.471.684.684,0,0,0,4.4.632a.549.549,0,0,0,0,.774.618.618,0,0,0,.494.146A3.843,3.843,0,0,1,8.027,2.873Z" transform="translate(0 -0.44)" fill="#0cb"/>
  </g>
</svg>
