<svg xmlns="http://www.w3.org/2000/svg" width="25" height="25" viewBox="0 0 25 25">
  <g id="Group_92" data-name="Group 92" transform="translate(0.256 0.033)">
    <g id="Ellipse_12" data-name="Ellipse 12" transform="translate(-0.256 -0.033)" fill="none" stroke="#fff" stroke-width="1">
      <circle cx="12.5" cy="12.5" r="12.5" stroke="none"/>
      <circle cx="12.5" cy="12.5" r="12" fill="none"/>
    </g>
    <g id="Thumb_up_icon_2" transform="translate(6.595 8.071)">
      <path id="Path_67" data-name="Path 67" d="M8.5,7.6v4.636a.456.456,0,0,0,.137.328.443.443,0,0,0,.328.137h2.089a.456.456,0,0,0,.328-.137.443.443,0,0,0,.137-.328V7.6a.456.456,0,0,0-.137-.328.443.443,0,0,0-.328-.137H8.965a.456.456,0,0,0-.328.137A.443.443,0,0,0,8.5,7.6Zm.93.923a.432.432,0,0,1,.137-.328A.443.443,0,0,1,9.9,8.053a.456.456,0,0,1,.328.137.443.443,0,0,1,.137.328.456.456,0,0,1-.137.328.443.443,0,0,1-.328.137.432.432,0,0,1-.328-.137A.443.443,0,0,1,9.43,8.518ZM11.977,7.6v4.644a.432.432,0,0,0,.13.313.447.447,0,0,0,.313.145c.114.008.3.153.549.427s.5.564.732.877a10.683,10.683,0,0,0,.732.869,1.109,1.109,0,0,1,.221.351,2.661,2.661,0,0,1,.13.351c.023.092.053.236.1.435a3.93,3.93,0,0,0,.092.442,1.842,1.842,0,0,0,.145.374,1.286,1.286,0,0,0,.244.358.443.443,0,0,0,.328.137,2.046,2.046,0,0,0,.595-.076,1.652,1.652,0,0,0,.435-.191,1.048,1.048,0,0,0,.29-.29,2.011,2.011,0,0,0,.175-.328,1.378,1.378,0,0,0,.084-.358c.023-.145.031-.252.038-.328v-.282a2.256,2.256,0,0,0-.069-.549,2.977,2.977,0,0,0-.137-.435c-.046-.107-.114-.244-.2-.4-.015-.031-.038-.069-.069-.13a1.444,1.444,0,0,1-.076-.16,1.518,1.518,0,0,1-.061-.175H18.7a1.406,1.406,0,0,0,1.388-1.388,1.6,1.6,0,0,0-.4-1.083,1.864,1.864,0,0,0,.107-.549,1.5,1.5,0,0,0-.313-.991,1.454,1.454,0,0,0,0-.846,1.4,1.4,0,0,0-.389-.679,1.727,1.727,0,0,0-.358-1.312A1.8,1.8,0,0,0,17.315,6.2h-.93a5.323,5.323,0,0,0-1.045.114,8.26,8.26,0,0,0-.877.214c-.214.069-.5.16-.869.29a5.689,5.689,0,0,1-1.144.32.5.5,0,0,0-.328.145A.373.373,0,0,0,11.977,7.6Z" transform="translate(-8.5 -6.2)" fill="#fff"/>
    </g>
  </g>
</svg>
